<svg width="12" height="13" viewBox="0 0 12 13" fill="none" xmlns="http://www.w3.org/2000/svg">
<g clip-path="url(#clip0_8_1077)">
<path d="M2.89638 6.8293L8.44673 12.3643C8.62858 12.5455 8.923 12.5452 9.10455 12.3634C9.28595 12.1815 9.28548 11.8869 9.10361 11.7055L3.88363 6.49998L9.1038 1.29444C9.28565 1.11303 9.28612 0.818634 9.10474 0.63676C9.06156 0.59336 9.01021 0.558932 8.95367 0.535461C8.89713 0.51199 8.8365 0.499939 8.77528 0.500003C8.71428 0.499927 8.65386 0.511884 8.59749 0.53519C8.54111 0.558495 8.48989 0.592692 8.44675 0.635822L2.89638 6.17068C2.80879 6.25782 2.75964 6.37642 2.75964 6.49998C2.75964 6.62354 2.80893 6.74199 2.89638 6.8293Z" fill="white"/>
</g>
<defs>
<clipPath id="clip0_8_1077">
<rect width="12" height="12" fill="white" transform="translate(12 12.5) rotate(-180)"/>
</clipPath>
</defs>
</svg>
