<svg width="24" height="24" viewBox="0 0 24 24" fill="none" xmlns="http://www.w3.org/2000/svg">
<path d="M23.7896 22.7761L17.9572 16.9437C19.5217 15.145 20.469 12.7982 20.469 10.2333C20.469 4.58714 15.8765 0 10.2357 0C4.58958 0 0.00244141 4.59246 0.00244141 10.2333C0.00244141 15.8741 4.5949 20.4665 10.2357 20.4665C12.8007 20.4665 15.1475 19.5193 16.9461 17.9548L22.7785 23.7871C22.9169 23.9255 23.1031 24 23.284 24C23.465 24 23.6512 23.9308 23.7896 23.7871C24.0663 23.5104 24.0663 23.0528 23.7896 22.7761ZM1.43393 10.2333C1.43393 5.38004 5.38249 1.43681 10.2304 1.43681C15.0836 1.43681 19.0268 5.38537 19.0268 10.2333C19.0268 15.0812 15.0836 19.035 10.2304 19.035C5.38249 19.035 1.43393 15.0865 1.43393 10.2333Z" fill="black"/>
</svg>
