<svg width="15" height="15" viewBox="0 0 15 15" fill="none" xmlns="http://www.w3.org/2000/svg">
<g id="Frame">
<g id="Group">
<path id="Vector" d="M10.3125 7.5C10.3126 7.56156 10.3005 7.62253 10.2769 7.67941C10.2534 7.73628 10.2188 7.78794 10.1752 7.83141L5.48769 12.5189C5.30452 12.7021 5.00792 12.7021 4.82487 12.5189C4.64183 12.3357 4.64171 12.0391 4.82487 11.8561L9.18097 7.5L4.82487 3.14391C4.64171 2.96074 4.64171 2.66414 4.82487 2.48109C5.00804 2.29805 5.30464 2.29793 5.48769 2.48109L10.1752 7.16859C10.2188 7.21207 10.2534 7.26372 10.2769 7.3206C10.3005 7.37747 10.3126 7.43844 10.3125 7.5Z" fill="white"/>
</g>
</g>
</svg>
