<svg width="22" height="24" viewBox="0 0 22 24" fill="none" xmlns="http://www.w3.org/2000/svg">
<path d="M4.16492 24H17.2505C19.5471 24 21.4154 22.1317 21.4154 19.8351V7.38462C21.4154 6.97846 21.0831 6.64615 20.6769 6.64615H16.2462V5.53846C16.2462 2.48492 13.7612 0 10.7077 0C7.65415 0 5.16923 2.48492 5.16923 5.53846V6.64615H0.738462C0.332308 6.64615 0 6.97846 0 7.38462V19.8351C0 22.1317 1.86831 24 4.16492 24ZM6.64615 5.53846C6.64615 3.29723 8.46646 1.47692 10.7077 1.47692C12.9489 1.47692 14.7692 3.29723 14.7692 5.53846V6.64615H6.64615V5.53846ZM1.47692 8.12308H5.16923V9.96923C5.16923 10.3754 5.50154 10.7077 5.90769 10.7077C6.31385 10.7077 6.64615 10.3754 6.64615 9.96923V8.12308H14.7692V9.96923C14.7692 10.3754 15.1015 10.7077 15.5077 10.7077C15.9138 10.7077 16.2462 10.3754 16.2462 9.96923V8.12308H19.9385V19.8351C19.9385 21.3157 18.7311 22.5231 17.2505 22.5231H4.16492C2.68431 22.5231 1.47692 21.3157 1.47692 19.8351V8.12308Z" fill="black"/>
</svg>
