<svg width="16" height="15" viewBox="0 0 16 15" fill="none" xmlns="http://www.w3.org/2000/svg">
<g id="Frame">
<g id="Group">
<path id="Vector" d="M5.18747 7.50003C5.18741 7.43847 5.19951 7.3775 5.22308 7.32062C5.24665 7.26375 5.28122 7.21209 5.32481 7.16862L10.0123 2.48112C10.1955 2.29796 10.4921 2.29796 10.6751 2.48112C10.8582 2.66429 10.8583 2.96089 10.6751 3.14394L6.31903 7.50003L10.6751 11.8561C10.8583 12.0393 10.8583 12.3359 10.6751 12.5189C10.492 12.702 10.1954 12.7021 10.0123 12.5189L5.32481 7.83144C5.28122 7.78796 5.24665 7.73631 5.22308 7.67943C5.19951 7.62256 5.18741 7.56159 5.18747 7.50003Z" fill="black"/>
</g>
</g>
</svg>
