<svg width="16" height="15" viewBox="0 0 16 15" fill="none" xmlns="http://www.w3.org/2000/svg">
<g id="Frame">
<g id="Group">
<path id="Vector" d="M10.8125 7.49997C10.8126 7.56153 10.8005 7.6225 10.7769 7.67938C10.7534 7.73625 10.7188 7.78791 10.6752 7.83138L5.98769 12.5189C5.80452 12.702 5.50792 12.702 5.32487 12.5189C5.14183 12.3357 5.14171 12.0391 5.32487 11.8561L9.68097 7.49997L5.32487 3.14388C5.14171 2.96071 5.14171 2.66411 5.32487 2.48106C5.50804 2.29802 5.80464 2.2979 5.98768 2.48106L10.6752 7.16856C10.7188 7.21204 10.7534 7.26369 10.7769 7.32056C10.8005 7.37744 10.8126 7.43841 10.8125 7.49997Z" fill="black"/>
</g>
</g>
</svg>
