<svg width="12" height="13" viewBox="0 0 12 13" fill="none" xmlns="http://www.w3.org/2000/svg">
<g clip-path="url(#clip0_8_1081)">
<path d="M9.10362 6.1707L3.55327 0.6357C3.37142 0.454459 3.077 0.454763 2.89545 0.636638C2.71405 0.818488 2.71452 1.11307 2.89639 1.29446L8.11637 6.50002L2.8962 11.7056C2.71435 11.887 2.71388 12.1814 2.89527 12.3632C2.93845 12.4066 2.98979 12.4411 3.04633 12.4645C3.10287 12.488 3.1635 12.5001 3.22473 12.5C3.28573 12.5001 3.34614 12.4881 3.40251 12.4648C3.45889 12.4415 3.51011 12.4073 3.55325 12.3642L9.10362 6.82932C9.19121 6.74218 9.24036 6.62358 9.24036 6.50002C9.24036 6.37646 9.19107 6.25801 9.10362 6.1707Z" fill="white"/>
</g>
<defs>
<clipPath id="clip0_8_1081">
<rect width="12" height="12" fill="white" transform="translate(0 0.5)"/>
</clipPath>
</defs>
</svg>
