<?xml version="1.0" standalone="no"?>
<!DOCTYPE svg PUBLIC "-//W3C//DTD SVG 20010904//EN"
 "http://www.w3.org/TR/2001/REC-SVG-20010904/DTD/svg10.dtd">
<svg version="1.0" xmlns="http://www.w3.org/2000/svg"
 width="512.000000pt" height="512.000000pt" viewBox="0 0 512.000000 512.000000"
 preserveAspectRatio="xMidYMid meet">

<g transform="translate(0.000000,512.000000) scale(0.100000,-0.100000)"
fill="#000000" stroke="none">
<path d="M1940 5099 c-330 -36 -682 -163 -960 -346 -823 -543 -1176 -1559
-869 -2498 50 -153 163 -384 253 -518 354 -528 910 -873 1536 -952 195 -25
484 -17 672 19 338 64 681 220 952 434 99 77 290 271 363 367 241 319 384 661
438 1045 18 133 21 425 5 545 -52 393 -192 742 -419 1045 -336 448 -820 743
-1376 841 -138 24 -455 34 -595 18z m359 -599 c144 -13 239 -32 370 -76 507
-168 903 -599 1026 -1116 153 -646 -105 -1304 -655 -1673 -594 -398 -1381
-339 -1921 145 -238 213 -408 508 -482 838 -18 83 -21 128 -22 317 0 241 8
301 67 485 190 595 726 1023 1352 1079 131 12 139 12 265 1z"/>
<path d="M4120 1343 c-46 -62 -259 -277 -337 -341 l-62 -51 444 -438 c511
-503 505 -498 644 -498 74 0 93 4 136 27 172 91 227 309 116 459 -27 37 -891
889 -901 889 -3 0 -21 -22 -40 -47z"/>
</g>
</svg>
